# xmcd CD database file
#
# Track frame offsets:
#	150
#	13127
#	26479
#	40098
#	53924
#	67755
#	82352
#	96904
#	110774
#	124554
#	139104
#	152176
#	165736
#	179393
#	193657
#	206756
#	220117
#	234862
#
# Disc length: 3307 seconds
#
# Revision: 0
# Processed by: cddbd v1.5.1PL2 Copyright (c) Steve Scherf et al.
# Submitted via: CDex 1.51
#
DISCID=fb0ce912
DTITLE=Connie Boswell - Vocal Jazz
DYEAR=2001
DGENRE=Jazz
TTITLE0=Gypsy Love Song
TTITLE1=Basin Street Blues
TTITLE2=You Forgot To Remember
TTITLE3=Heart And Soul
TTITLE4=Littleman, You've Had A Busy Day
TTITLE5=Sand In My Shoes
TTITLE6=Stormy Weather
TTITLE7=The Can't Take That Away From Me
TTITLE8=Amapola
TTITLE9=All I Do Is Dream Of You
TTITLE10=That Old Feeling
TTITLE11=Me Minus You
TTITLE12=It's The Talk Of The Town
TTITLE13=I Let A Song Go Out Of My Heart
TTITLE14=Deep In A Dream
TTITLE15=I Cover The Waterfront
TTITLE16=Carioca
TTITLE17=In The Middle Of A Kiss
EXTD=YEAR: 2001
EXTT0=
EXTT1=
EXTT2=
EXTT3=
EXTT4=
EXTT5=
EXTT6=
EXTT7=
EXTT8=
EXTT9=
EXTT10=
EXTT11=
EXTT12=
EXTT13=
EXTT14=
EXTT15=
EXTT16=
EXTT17=
PLAYORDER=
